<?xml version="1.0" standalone="no"?>
<!DOCTYPE svg PUBLIC "-//W3C//DTD SVG 20010904//EN"
 "http://www.w3.org/TR/2001/REC-SVG-20010904/DTD/svg10.dtd">
<svg version="1.0" xmlns="http://www.w3.org/2000/svg"
 width="512.000000pt" height="512.000000pt" viewBox="0 0 512.000000 512.000000"
 preserveAspectRatio="xMidYMid meet">

<g transform="translate(0.000000,512.000000) scale(0.100000,-0.100000)"
fill="#000000" stroke="none">
<path d="M4657 4489 c-159 -37 -379 -243 -576 -538 -114 -171 -182 -289 -311
-546 l-115 -230 -50 0 c-43 0 -51 -3 -64 -27 -14 -25 -14 -29 7 -58 l23 -30
-38 -48 c-21 -26 -88 -108 -149 -182 -61 -74 -125 -156 -142 -182 -46 -67
-214 -234 -302 -300 -169 -126 -438 -228 -603 -228 -82 0 -158 35 -181 84 -76
161 114 511 414 760 197 165 393 250 436 191 16 -22 18 -76 5 -122 -11 -37 7
-70 32 -60 8 3 30 36 49 74 54 110 41 181 -43 223 -88 46 -213 32 -366 -40
-196 -92 -399 -253 -613 -487 -167 -183 -259 -276 -375 -377 -106 -92 -314
-250 -321 -244 -2 3 63 153 144 334 274 605 325 726 315 743 -27 44 -171 94
-213 75 -23 -11 -142 -154 -343 -414 -202 -262 -273 -344 -413 -481 -140 -136
-221 -184 -311 -184 -135 0 -147 132 -34 370 69 144 202 300 385 450 l49 40
-17 33 c-34 66 -122 91 -203 57 -86 -36 -305 -300 -391 -470 -122 -243 -100
-479 52 -554 65 -33 195 -36 271 -7 175 67 370 260 696 691 54 72 111 146 128
165 l30 35 -39 -100 c-68 -178 -288 -670 -401 -898 l-34 -69 -185 -125 c-443
-300 -681 -513 -827 -740 l-33 -52 0 -156 0 -156 28 -24 c78 -69 241 -90 355
-46 76 30 199 123 282 214 80 86 210 279 295 436 35 63 118 232 187 375 68
144 132 267 141 274 9 7 58 42 107 76 115 82 213 164 396 331 l147 134 -10
-42 c-26 -111 18 -252 96 -309 135 -100 325 -122 546 -62 126 33 222 75 316
136 97 65 299 259 407 393 90 113 278 335 282 335 1 0 -20 -60 -47 -132 -52
-137 -268 -745 -268 -753 0 -14 70 -1 139 25 96 37 111 53 292 297 255 344
330 431 473 550 94 79 183 130 210 120 9 -4 16 -18 16 -31 0 -14 -47 -121
-105 -238 -126 -255 -149 -331 -143 -477 3 -84 7 -103 32 -145 75 -128 285
-127 481 2 77 51 357 324 423 413 37 49 42 62 42 108 l0 52 -62 -73 c-159
-187 -408 -412 -522 -472 -119 -63 -196 -11 -196 132 0 144 70 345 198 571 88
155 111 215 112 289 0 44 -4 57 -26 79 -52 52 -168 17 -322 -98 -163 -120
-407 -364 -615 -613 -83 -99 -98 -114 -92 -87 14 66 104 322 156 445 l54 127
254 207 c570 464 742 633 880 870 114 196 86 339 -76 388 -51 15 -147 17 -206
3z m224 -120 c59 -111 -206 -496 -560 -817 -120 -108 -266 -227 -364 -296 -79
-56 -79 -61 12 122 127 253 277 498 394 641 116 142 298 309 380 350 57 29
122 28 138 0z m-3935 -2631 c-68 -156 -246 -518 -297 -604 -102 -171 -264
-345 -372 -399 -53 -26 -115 -32 -148 -15 -62 34 -65 160 -7 282 46 97 109
170 269 314 148 132 544 452 562 453 4 1 1 -14 -7 -31z"/>
</g>
</svg>
